<?xml version="1.0" encoding="UTF-8"?><svg id="Calque_2" xmlns="http://www.w3.org/2000/svg" viewBox="0 0 430.06 266.79"><defs><style>.cls-1{stroke-width:4px;}.cls-1,.cls-2,.cls-3,.cls-4,.cls-5{fill:none;stroke:#fff;stroke-miterlimit:10;}.cls-2,.cls-4,.cls-5{stroke-width:3px;}.cls-3{stroke-width:6px;}.cls-4{stroke-dasharray:0 0 14.72 14.72;}.cls-4,.cls-5{stroke-linecap:round;}.cls-6{fill:#77bb5d;}.cls-6,.cls-7{stroke-width:0px;}.cls-7{fill:#fff;}</style></defs><g id="Calque_1-2"><rect class="cls-3" x="3" y="3" width="424.06" height="260.79"/><line class="cls-1" x1="215.03" y1="263.79" x2="215.03" y2="3"/><rect class="cls-2" x="340.51" y="54.97" width="86.55" height="156.85"/><rect class="cls-2" x="368.67" y="79.28" width="58.39" height="108.22"/><path class="cls-5" d="M340.51,195.86c-2.29-.85-4.51-2.01-6.64-3.46"/><path class="cls-4" d="M323.45,182.11c-8.64-11.77-14.12-29.23-14.12-48.71,0-22.86,7.54-42.94,18.9-54.3"/><path class="cls-5" d="M333.88,74.39c2.12-1.44,4.34-2.6,6.64-3.46"/><rect class="cls-2" x="3" y="54.97" width="86.55" height="156.85" transform="translate(92.55 266.79) rotate(180)"/><rect class="cls-2" x="3" y="79.28" width="58.39" height="108.22" transform="translate(64.39 266.79) rotate(180)"/><path class="cls-5" d="M89.55,195.86c2.29-.85,4.51-2.01,6.64-3.46"/><path class="cls-4" d="M106.61,182.11c8.64-11.77,14.12-29.23,14.12-48.71,0-22.86-7.54-42.94-18.9-54.3"/><path class="cls-5" d="M96.19,74.39c-2.12-1.44-4.34-2.6-6.64-3.46"/><circle class="cls-2" cx="215.03" cy="133.39" r="49.51"/><circle class="cls-7" cx="165.52" cy="133.39" r="8.69"/><circle class="cls-7" cx="233.55" cy="178.81" r="8.69"/><circle class="cls-6" cx="233.55" cy="86.2" r="8.69"/><circle class="cls-7" cx="340.51" cy="133.4" r="8.69"/><circle class="cls-7" cx="306.69" cy="35" r="8.69"/><circle class="cls-7" cx="306.69" cy="236.45" r="8.69"/><circle class="cls-7" cx="123.57" cy="225.68" r="8.69"/><circle class="cls-7" cx="89.55" cy="174.21" r="8.69"/><circle class="cls-7" cx="123.57" cy="45.2" r="8.69"/><circle class="cls-7" cx="89.55" cy="96.66" r="8.69"/></g></svg>