<?xml version="1.0" encoding="UTF-8"?><svg id="Calque_2" xmlns="http://www.w3.org/2000/svg" viewBox="0 0 918.52 918.52"><defs><style>.cls-1{fill:#090404;}.cls-1,.cls-2,.cls-3,.cls-4,.cls-5,.cls-6,.cls-7,.cls-8,.cls-9,.cls-10{stroke-width:0px;}.cls-2{fill:#b8b7b7;}.cls-3{opacity:0;}.cls-3,.cls-7{fill:#d9d9d8;}.cls-4{fill:#111;}.cls-5{fill:#ededed;}.cls-6{fill:#ebba88;}.cls-8{fill:#130301;}.cls-9{fill:#eb5b5e;}.cls-10{fill:#3156a3;}</style></defs><g id="Calque_1-2"><rect class="cls-3" width="918.52" height="918.52"/><path class="cls-4" d="M85.06,262.87c-3.94,12.68-1.02,25.18,1.35,37.47.03.13.05.27.08.4,3.76-23.45,10.77-46,20.57-67.13-10.66,6.46-17.96,16.27-22,29.25ZM833.76,754.25c-.4-2.7-.81-5.42-1.21-8.12-3.29-13.01-9.38-24.51-18.45-34.41-2.34-2.2-4.75-4.34-7.02-6.6-27.45-27.43-54.97-54.8-82.31-82.34-11.99-12.07-23.54-24.57-39.92-30.93-3.41-.82-6.83-1.66-10.24-2.48-6.45-1.24-12.97-1.09-19.48-1.21-4.17.48-8.34.95-12.52,1.44-3.74,1.43-7.47,2.93-11.24,4.28-4.5,1.61-5.88-2.5-8.28-4.68-5.21-5.21-10.41-10.41-15.62-15.6-.51-.73-1.03-1.47-1.54-2.2-6.05-4.7-11.39-10.1-16.13-16.09-.4,0-.73-.13-1.02-.4-4.7-4.55-9.28-9.24-14.14-13.62-2.2-1.98-1.48-3.05.44-4.3v-.04c.48-.46.94-.93,1.39-1.4,6.12-8.5,12.25-17.01,18.36-25.52,1.2-1.67,2.33-3.4,3.5-5.09,2.55-4.17,5.11-8.35,7.67-12.52.35-.41.69-.82,1.04-1.23.12-.9.27-1.78,1.2-2.24.04-.94.21-1.81,1.16-2.28,2.17-5.58,4.89-10.88,8-16,1.53-3.42,3.05-6.86,4.58-10.29.95-3.11,1.87-6.27,3.69-9.03,1.57-4.64,3.14-9.29,4.7-13.93.23-.36.48-.72.71-1.07,2.69-9.91,5.36-19.8,8.05-29.69.28-2.3-.03-4.71,1.34-6.79.89-6.55,1.43-13.16,3.22-19.55.45-4.91.9-9.83,1.35-14.74.37-3.46-.94-7.08.93-10.42.01-.35.06-.69.18-1.03v-3.5c.01-5.7.03-11.4.05-17.1-.26-5.74-1.72-11.41-1.14-17.21-.46-4.91-.91-9.84-1.36-14.77-1.08-6.51-2.15-13.02-3.22-19.53-.45-2.26-.89-4.54-1.34-6.82-2.59-9.13-5.17-18.28-7.74-27.41-1.93-5.74-3.86-11.48-5.78-17.21-1.67-2.84-2.82-5.9-3.63-9.11-2.1-2.24-2.66-5.16-3.56-7.94-3.05-6.11-6.11-12.21-9.16-18.32-6.82-10.68-13.62-21.37-20.43-32.06-.42-.75-.84-1.49-1.25-2.24-4.71-4.93-8.94-10.24-12.65-15.95-1.85-1.22-3.22-2.91-4.37-4.75-4.34-2.97-6.73-7.73-10.39-11.31-2.28-2.28-4.55-4.55-6.83-6.83-1.26-1-2.55-1.99-3.81-3h0c-2.78-2.2-5.47-4.49-7.67-7.32-1.87-1.57-3.73-3.14-5.61-4.71-5.36-4.14-10.73-8.3-16.09-12.45-.39-.33-.78-.67-1.18-1-4.22-1.79-7.59-4.91-11.37-7.4-.76-.6-1.53-1.23-2.29-1.87-.77-.37-1.53-.77-2.32-1.16-3.78-2.29-7.59-4.58-11.37-6.87-.39-.35-.77-.69-1.16-1.03-.9-.19-1.93-.13-2.39-1.2.04.01.06.04.1.05l-.1-.06c-.75-.39-1.49-.77-2.23-1.18l.03.03c-4.19-2.06-8.4-4.12-12.61-6.17-2.24-1.09-4.46-2.19-6.7-3.28-2.33-1.03-5.12-1.05-6.96-3.18-3.16-.84-6.25-1.9-9.07-3.63-.63-.09-1.26-.21-1.88-.35-4.16-.98-7.94-3-11.95-4.4-10.64-2.93-21.28-5.85-31.92-8.79-1.99-.06-3.96-.19-5.71-1.32-4.46-.66-8.94-1.31-13.4-1.97-2.82-.41-5.62-.82-8.44-1.23-3.81-.3-7.72.37-11.36-1.33-2.71-.08-5.43-.15-8.14-.23-3.54-.08-7.08-.17-10.61-.24-8.22-.17-16.44-.23-24.66.26-2.33.06-4.64.12-6.96.18-4.39,1.92-9.07,1-13.61,1.36-6.77,1.9-13.75,2.41-20.7,3.2-12.16,3.13-24.31,6.25-36.48,9.37-5.18,2.37-10.42,4.55-16.02,5.76-2.3,2.08-5.35,2.33-8.09,3.33-5.76,2.79-11.54,5.57-17.32,8.36-2.97,1.43-5.93,2.87-8.9,4.3l.04-.04c-.37.24-.73.5-1.11.75-1.09.6-1.88,1.88-3.4,1.56-2.53,1.94-5.09,3.85-7.9,5.33-1.13.6-2.3,1.13-3.54,1.57-5.79,4.08-11.58,8.16-17.38,12.23-.31.22-.66.32-1.03.32-3.13,2.44-6.25,4.88-9.38,7.33-2.23,1.71-4.44,3.45-6.65,5.18-1.27,2.32-3.6,3.34-5.69,4.68-4.21,4.12-8.41,8.25-12.63,12.36-1.54,1.56-3.1,3.1-4.64,4.64-3.49,4.09-7.06,8.08-11.23,11.5-.39,2.11-1.93,3.33-3.47,4.57-7.23,9.53-14.45,19.05-21.68,28.58-.41.75-.84,1.49-1.25,2.25v.03c-.39.42-.76.84-1.12,1.26l.1-.1c-.41.76-.82,1.53-1.23,2.29h0c-1.8,4.1-4.14,7.87-6.9,11.4-.57,2.23-1.21,4.43-3.34,5.74-5.47,12.14-10.92,24.3-16.38,36.44-1.17,3.49-2.35,6.96-3.52,10.45l-1.89,4.59.03-.03c-1.61,5.7-3.2,11.38-4.81,17.08-.49,4.36-1.49,8.61-3.22,12.66.3,2.75-.71,5.29-1.36,7.87-.23,3.94-.55,7.86-2.07,11.57-.48,5.31-.96,10.64-1.44,15.95-.37,3.82-.75,7.64-1.13,11.45v34.18c.35,3.83.68,7.67,1.02,11.49.51,5.33,1.04,10.65,1.56,15.98,1.81,5.6,2.32,11.44,3.14,17.21.09.75.19,1.48.3,2.23,1.6,4.09,2.84,8.27,3.2,12.67,2.26,7.59,4.54,15.18,6.8,22.77,1.53,4.22,3.07,8.44,4.62,12.66,1.25,2.12,2.48,4.26,2.5,6.82,2.3,3.09,3.47,6.68,4.57,10.29,3.07,6.06,6.16,12.13,9.24,18.19,1.04.45.96,1.49,1.2,2.37.33.41.67.84,1,1.25l7.64,12.47c8.07,11.76,16.08,23.54,25.42,34.35,1.2,1.52,2.41,3.02,3.6,4.53,3.61,2.86,6.48,6.38,9.11,10.14l6.99,6.99c4.62,3.33,8.9,7,12.5,11.44,2.15.31,3.23,2.01,4.48,3.49,11.49,8.35,22.96,16.71,34.45,25.06,3.79,1.21,6.82,3.77,10.16,5.78,2.43.26,3.77,2.34,5.72,3.41.77.37,1.53.75,2.3,1.13,5.66,2.77,11.35,5.54,17.01,8.32,3.2,1.2,6.64,1.92,9.31,4.27,2.59-.08,4.55,1.52,6.73,2.52,2.07.71,4.13,1.43,6.2,2.15,1.4.48,2.8.96,4.21,1.45,1.03.32,2.07.64,3.1.96,7.32,2.28,14.63,4.55,21.96,6.84,4.72.57,9.34,1.63,13.83,3.22,2.28.32,4.77-.55,6.81,1.17,4.67.3,9.31.77,13.78,2.26,5-.35,9.85.9,14.78,1.36,5.79-.46,11.46.81,17.2,1.14,5.7-.01,11.41-.03,17.11-.05,5.72-.36,11.46-.72,17.2-1.09,4.93-.45,9.85-.91,14.77-1.36,6.14-1.07,12.27-2.15,18.41-3.23,11.98-2.3,23.64-5.8,35.38-9.08.76-.27,1.53-.53,2.29-.8,1.05-.36,2.11-.72,3.16-1.09,3.9-1.35,7.8-2.7,11.71-4.07,1.57-1.57,3.83-1.4,5.67-2.32,2.83-1.25,5.66-2.5,8.49-3.74.62-.27,1.22-.54,1.84-.81,5.88-3.49,11.96-6.55,18.27-9.19.36-.23.72-.48,1.08-.71.41-.13.82-.27,1.24-.4.75-.42,1.49-.85,2.25-1.27,1.08-.82,2.17-1.63,3.28-2.41,2.51-1.75,5.15-3.29,8.05-4.39,5.62-4.07,11.24-8.13,16.85-12.2,5.43-3.92,10.84-7.85,16.27-11.77,2.39-3.36,4.4-4.21,7.91-.62,16.05,16.45,32.38,32.64,48.74,48.79,2.2,2.19,2.53,3.69,1.27,6.7-2.75,6.56-4.9,13.4-5.35,20.62.12,8.03-.4,16.08,1.16,24.03,1.05,1.74,1.27,3.67,1.36,5.63,1.52,3.45,3.02,6.9,4.54,10.34,3.41,6.37,7.67,12.16,12.34,17.65,5.67,5.71,11.33,11.41,17.01,17.11l17.1,17.1c5.72,5.72,11.46,11.46,17.2,17.2l17.15,17.15c5.65,5.7,11.31,11.39,16.96,17.08l.19.21c6.01,5.29,11.65,10.95,16.96,16.93l.15-.04c9.67,9.07,20.94,15.36,33.58,19.27,4.13,1.22,8.63.26,12.66,2.07.36,0,.71.06,1.04.18h3.5c5.31-.45,10.61-.89,15.93-1.33,1.25-1.92,3.49-1.27,5.17-1.7,11.31-2.88,20.78-9.24,30.27-15.57,1.53-1.53,3.06-3.07,4.59-4.61,6.61-8.66,11.68-18.14,15.15-28.47,2.29-9.35,2.48-18.88,2.29-28.44ZM518.54,527.78c-7.73,7.47-15.94,14.49-24.6,20.97-13.56,10.14-28.21,18.99-43.79,26.32-9.96,4.7-20.29,8.76-30.98,12.14-25.32,8.07-52.56,12.34-81.21,12.11-17.87-.14-35.38-2.15-52.32-5.84-8.63-1.89-17.12-4.21-25.45-6.95-13.78-4.54-27.08-10.23-39.78-16.97-8.41-4.45-16.56-9.38-24.4-14.73-59.5-40.52-101.69-105.69-110.83-182.57-1.38-11.5-2.01-23.27-1.84-35.26.17-12.27,1.23-24.38,3.14-36.26,3.76-23.45,10.77-46,20.57-67.13,5.4-11.62,11.64-22.81,18.67-33.46,7.46-11.35,15.81-22.1,24.94-32.15,7.62-8.4,15.8-16.3,24.47-23.63,20.71-17.55,44.23-31.9,69.83-42.17,8-3.22,16.21-6.03,24.6-8.41,21.97-6.27,45.18-9.6,69.21-9.53h1.11c8.05-.06,16.03.24,23.9.9,24.09,2.03,47.31,7.38,69.16,15.64,8.48,3.2,16.74,6.84,24.76,10.9,26.02,13.13,49.54,30.6,69.53,51.57,8.94,9.37,17.17,19.43,24.61,30.12,29.46,42.26,46.53,94.3,45.66,151.49-1.08,70.66-30.6,136.09-78.96,182.91ZM783.59,769.3c-4.39,10.66-11.77,15.72-23,15.78-6.75.09-12.35-2.34-17.15-7.17-33.91-33.99-67.89-67.91-101.83-101.87-7.8-7.78-9.2-17.5-3.99-27.3,5.48-10.29,14.46-14.22,25.45-12.63,9.13,1.32,14.6,7.36,20.39,13.24,21.43,21.7,42.75,43.52,64.18,65.24,9.89,10.05,19.93,19.95,29.88,29.92,7.05,7.08,9.4,16.71,6.07,24.79ZM72.12,488.92s-.03-.05-.04-.08c0,0-.01-.01-.03-.01l.06.09Z"/><path class="cls-2" d="M760.58,785.08c-6.74.09-12.34-2.35-17.14-7.16-33.91-34-67.88-67.92-101.83-101.87-7.79-7.79-9.2-17.5-3.99-27.31,5.47-10.29,14.46-14.22,25.44-12.62,9.13,1.32,14.6,7.36,20.39,13.23,21.43,21.71,42.75,43.52,64.18,65.24,9.9,10.04,19.93,19.94,29.89,29.92,7.05,7.07,9.4,16.7,6.07,24.79-4.38,10.66-11.78,15.72-23.01,15.78Z"/><rect class="cls-4" x="542.4" y="622.66" width="365.48" height="211.83" rx="105.91" ry="105.91" transform="translate(764.85 -298.59) rotate(47.08)"/><rect class="cls-7" x="581.79" y="663.95" width="286.69" height="129.25" rx="64.62" ry="64.62" transform="translate(764.85 -298.59) rotate(47.08)"/><path class="cls-1" d="M551.84,342.83c.03-10.21-2.41-13.28-12.29-15.9-10.09,3.18-12.4,6.17-12.29,16.75.23,22.27.33,44.54-7.37,65.89-2.35,6.5-4.79,13.01-7.82,19.21-7.86,16.08-16.14,31.96-24.11,48-1.43,2.86-2.71,3.74-5.98,2.57-6.19-2.21-12.72-2.64-19.3-2.64-70.3.04-140.62.04-210.92-.03-5.35,0-10.97-.17-15.73,1.75-6.37,2.57-10.46.66-15.18-3.29-9.4-7.87-19.17-15.3-28.91-22.94h-.01l-.39-.31c-.48-.37-.96-.76-1.44-1.13h.01c1.72-1.88,3.64-1.02,5.3-1.02,22.89-.08,45.78-.01,68.67-.06,7.72-.03,12.83-3.45,14.13-9.21,1.93-8.52-3.47-15.23-12.67-15.3-17.38-.13-34.75-.05-52.13-.05s-33.92-.08-50.88.06c-2.53.03-4.54-.5-6.45-1.78l-.05-.04c-.57-.37-1.11-.81-1.66-1.33-35.72-33.14-58.57-73.51-67.89-121.31-.03-.13-.05-.27-.08-.4-2.37-12.3-5.29-24.79-1.35-37.47,4.04-12.98,11.33-22.8,22-29.25,3.47-2.11,7.32-3.86,11.51-5.25,12.16-4.04,24.47-7.58,36.74-11.26,2.05-.62,5.54-1.61,3.43,2.5-11.24,21.87-7.58,45.41-8.08,68.48-.06,3.27,0,6.55,0,9.82,0,11.54,4.19,17.73,12.12,17.87,8.03.15,12.41-6.03,12.41-17.56,0-15.54.05-31.07-.04-46.59-.01-2.91.4-5.65,1.36-8.36,6.24-17.43,12.5-34.84,18.58-52.32,1.18-3.41,2.98-5.17,6.51-6.3,41.35-13.25,83.63-20.89,127.01-23.43,66.68-3.9,131.23,6.21,194.33,27.32,3.6,1.21,4.41,3.05,4.36,6.55-.19,14.1-.08,28.21-.08,42.31,0,11.17,1.88,13.8,12.31,17.38,10.34-3.18,12.3-5.76,12.3-16.56v-44.82c0-18.95-.01-37.9-.12-56.85-.03-6.1-.77-11.94-2.21-17.48h0c-3.15-12.22-9.66-23.03-19.37-32.06-16.62-15.46-35.58-23.13-56.89-20.29-4.54.6-9.19,1.7-13.95,3.28-3.6,1.2-3.61-.8-4.46-2.78-1.76-4.08-3.82-7.73-6.2-10.93-7.47-10.09-18.1-15.77-32.19-16.31-10.25-.39-20.53-.23-30.8-.17-1.57.01-3.14.03-4.71.03-7.69.03-14.85,1.98-21.35,6.17-1.35.86-2.59,1.87-3.99-.23-2.42-3.61-5.3-6.56-8.5-9.01-5.43-4.16-11.81-6.87-18.59-8.99h-49.06c-11.75,3.87-22.1,9.66-28.6,20.78-.69,1.17-1.63,1.67-3.02.78-11.86-7.54-25.16-5.61-38.1-5.61-34.85,0-58.6,23.55-59.05,58.21-.01.32-.01.63-.01.95-.03,21.7-.06,43.4,0,65.12.03,6.48.05,12.98.09,19.48.03,3.92-.96,5.7-4.88,6.75-6.75,1.81-13.46,3.86-20.16,5.92-3.4,1.04-6.79,2.1-10.2,3.11-25.37,7.63-43.52,23.13-52.72,48.38-5.8,15.9-4.57,31.99-1.72,48.24,4.54,26.01,12.56,50.15,24.11,72.38,12.58,24.29,29.38,46.29,50.42,65.94,21.36,19.95,45.46,36.61,68.28,54.8,2.86,2.28,3.28,3.5,1.04,6.63-6.16,8.68-8.98,18.54-8.94,29.25.03,8.66.04,17.3.03,25.95,7.85,5.35,15.99,10.28,24.4,14.73-.03-13.92.08-27.84.3-41.76.24-15.66,12.54-26.38,29.41-26.42,35.96-.1,71.91-.04,107.87-.04s69.47,0,104.2.01c20.92,0,31.7,10.77,31.72,31.68,0,5.24.01,10.47.03,15.71,8.66-6.48,16.87-13.49,24.6-20.97-.37-10.69-3.32-20.67-9.89-29.36-1.92-2.53-1.87-4.32-.5-6.99,8.27-16.11,16.42-32.28,24.49-48.47,6.82-13.67,12.14-27.85,15.54-42.83,4.3-18.96,3.61-38.14,3.65-57.31ZM335.49,135.9c-20.57,1.16-41.09,2.95-61.44,6.12-4.27.67-4.59-1.07-4.54-4.5.17-11.23.06-22.46.06-33.69,0-3.34,0-6.69-.01-10.03-.01-7.49-.03-14.96.04-22.44.09-11.23,7.47-18.82,18.7-19.01,10.63-.18,21.24-.18,31.85.01,10.75.19,18.29,7.22,18.46,17.93.08,4.66.13,9.31.15,13.97.03,4.3.04,8.59.04,12.89.01,4.3,0,8.61,0,12.9-.01,7.37-.01,14.74.01,22.1.01,2.47-.58,3.59-3.33,3.74ZM457.72,110.76c.32-12.83,7.81-19.75,20.67-19.59,28.52.33,48.7,20.66,48.85,49.23.04,7.45,0,14.92,0,22.87v.81c-22.22-7.11-44.09-13.3-66.35-17.92-2.87-.59-3.31-2.2-3.28-4.77.1-8.22-.05-16.43.03-24.64.01-1.69.04-3.37.08-5.06,0-.31,0-.63.01-.94ZM363.78,84.48c.12-13.12,7.01-19.93,20.04-19.98,10.21-.04,20.43-.09,30.63.03,11,.12,18.28,7.38,18.45,18.43.09,5.96.06,11.9.04,17.84,0,2.83-.01,5.67-.01,8.5.01,8.17.01,16.34,0,24.49,0,7.64-.03,7.8-7.8,6.59-16.96-2.66-34.05-3.55-51.15-4.49-10.21-.55-10.23-.41-10.23-10.38,0-13.44-.09-26.91.03-40.36v-.68ZM184.65,77.52c.14-.14.28-.27.42-.41.8-.77,1.63-1.49,2.52-2.14.3-.24.6-.46.91-.68.45-.32.91-.63,1.39-.93.4-.26.81-.5,1.22-.73.1-.06.21-.13.32-.18.26-.14.51-.28.77-.41.28-.15.58-.3.87-.44.17-.09.35-.17.53-.24.17-.09.33-.17.51-.23.37-.17.75-.32,1.12-.46.77-.32,1.57-.59,2.38-.84.21-.06.41-.12.6-.18.68-.21,1.39-.39,2.1-.53.24-.06.49-.12.73-.17.21-.04.4-.08.6-.1.26-.05.53-.09.8-.14.27-.05.54-.09.81-.12,1.34-.18,2.7-.3,4.1-.32,5.71-.12,11.44-.05,17.15-.01,12.36.08,20.13,7.23,20.33,19.5.04,2.41.06,4.81.08,7.22.03,2.41.04,4.82.04,7.23.03,7.91,0,15.81,0,23.72-.03,5.85-.04,11.73.01,17.59.01,3.01-1,4.09-3.99,4.8-15.82,3.73-31.5,7.96-47.01,12.89-7.17,2.28-13.57,5.17-18.78,12.88,0-2.53,0-5.06-.01-7.55,0-2.51,0-4.99-.01-7.46-.01-4.95-.03-9.84-.04-14.69-.04-15.04-.05-29.69.15-44.33,0-.57.03-1.13.06-1.69.03-.49.06-.98.13-1.45.01-.24.04-.48.08-.72.03-.26.05-.49.1-.75.01-.13.03-.26.05-.39.05-.37.12-.73.21-1.09-.01-.04,0-.06.01-.1.04-.22.08-.44.13-.64.08-.35.15-.71.24-1.05.08-.32.17-.64.27-.96.17-.63.36-1.26.59-1.87.06-.19.13-.39.21-.58.5-1.38,1.11-2.7,1.8-3.97.05-.12.13-.23.19-.35.36-.66.75-1.29,1.16-1.9.21-.31.42-.62.64-.93-.01-.01-.01-.03.01-.03.24-.37.53-.73.82-1.09.8-1.04,1.68-2.03,2.64-2.96ZM417.38,562.6c-38.21-.12-76.41-.1-114.62-.01-18.99.04-34.39,9.26-42.56,23.95,8.32,2.74,16.81,5.06,25.45,6.95,3.87-3.92,9.16-6.26,15.28-6.29,39.25-.18,78.51-.21,117.75.01.17,0,.33,0,.5.01,10.69-3.38,21.02-7.45,30.98-12.14-8.45-7.96-19.79-12.44-32.78-12.48Z"/><path class="cls-10" d="M527.48,288.3c1.03-6.77,5.7-9.94,12.13-10.96-.01-7.53-.04-15.05-.06-22.58-10.43-3.58-12.31-6.21-12.31-17.38,0-14.1-.12-28.21.08-42.31.05-3.5-.76-5.34-4.36-6.55-63.1-21.11-127.65-31.22-194.33-27.32-43.38,2.53-85.66,10.18-127.01,23.43-3.52,1.13-5.33,2.89-6.51,6.3-6.07,17.48-12.34,34.89-18.58,52.32-.96,2.71-1.38,5.45-1.36,8.36.09,15.53.04,31.05.04,46.59,0,11.53-4.39,17.71-12.41,17.56-7.92-.14-12.12-6.33-12.12-17.87,0-3.27-.06-6.55,0-9.82.5-23.07-3.16-46.61,8.08-68.48,2.11-4.1-1.39-3.11-3.43-2.5-12.27,3.68-24.58,7.22-36.74,11.26-4.19,1.39-8.04,3.14-11.51,5.25-10.66,6.46-17.96,16.27-22,29.25-3.94,12.68-1.02,25.18,1.35,37.47.03.13.05.27.08.4,9.31,47.8,32.16,88.17,67.89,121.31.55.51,1.09.95,1.66,1.33l.05.04c1.9,1.27,3.91,1.8,6.45,1.78,16.96-.14,33.92-.06,50.88-.06s34.75-.08,52.13.05c9.2.06,14.6,6.78,12.67,15.3-1.3,5.76-6.41,9.19-14.13,9.21-22.89.05-45.78-.01-68.67.06-1.66,0-3.58-.86-5.3,1h-.01c.48.39.96.77,1.44,1.14l.39.31h.01c9.74,7.64,19.5,15.06,28.91,22.94,4.72,3.95,8.81,5.87,15.18,3.29,4.76-1.92,10.38-1.75,15.73-1.75,70.3.06,140.62.06,210.92.03,6.57,0,13.11.42,19.3,2.64,3.27,1.17,4.55.28,5.98-2.57,7.96-16.04,16.25-31.92,24.11-48,3.04-6.2,5.47-12.71,7.82-19.21,7.71-21.36,7.6-43.62,7.37-65.89-.12-10.57,2.2-13.57,12.29-16.75v-24.39c-2.07-.77-4.32-1.26-6.19-2.38-4.39-2.65-6.66-6.74-5.88-11.86ZM327.66,438.02c-.35,6.6-6.19,11.98-12.59,11.59-6.39-.39-11.93-6.38-11.69-12.67.26-6.79,6.24-12.17,13.08-11.75,6.63.41,11.55,6.06,11.2,12.83ZM264.15,314.29c-3.96,4.66-7.37,8.98-11.11,12.99-6.46,6.9-14.27,6.73-20.56-.37-3.74-4.22-7.26-8.63-11.89-14.16,0,16.7.04,31.9-.01,47.11-.04,7.27-3.45,12.31-9.01,13.69-7.76,1.9-15.32-3.25-15.4-11.42-.26-27.99-.15-55.99-.06-83.98.01-5.22,2.97-9.07,7.69-10.77,4.85-1.75,9.8-1.17,13.46,3.07,7.45,8.67,15.05,17.24,22.02,26.28,3.28,4.25,4.84,3.14,7.53-.22,6.51-8.13,13.4-15.94,19.95-24.04,4.03-5,9.01-7.22,15.09-5.22,6.03,1.98,8.25,7.13,8.27,13.02.12,26.56.17,53.13-.01,79.68-.05,7.28-3.86,12.48-9.24,13.56-5.71,1.14-10.56-.35-13.7-5.61-1.83-3.09-1.98-6.59-1.99-10.06-.03-12.26.03-24.52-.04-36.78-.01-1.96.53-4.01-.99-6.77ZM362.48,326.82c-6.92,7.58-14.69,7.41-21.42-.37-3.54-4.09-6.91-8.3-11.33-13.64,0,16.76.09,31.99-.04,47.23-.08,8.53-4.9,13.73-12.29,13.75-6.63.03-12.05-4.52-12.11-11.2-.19-28.39-.14-56.78-.01-85.18.03-5,3.24-8.53,7.69-10.09,5.15-1.79,10.16-.78,13.89,3.63,7.26,8.57,14.6,17.07,21.53,25.9,2.82,3.56,4.39,3.59,7.17.08,6.6-8.31,13.62-16.29,20.29-24.55,4.05-5,9.08-7.14,15.12-5.08,5.7,1.93,8,6.75,8.03,12.52.08,26.77.22,53.53-.03,80.29-.08,8.86-4.97,13.71-12.31,13.71s-12.34-5.3-12.47-14.32c-.21-14.91-.05-29.81-.05-46.41-4.61,5.44-8,9.73-11.67,13.74ZM497.29,373.06c-6.52,2.84-13.7-.15-16.59-8.12-2.2-6.02-5.44-8.21-11.6-7.36-3.6.49-7.33.09-11.01.09-2.44,0-4.93.26-7.35-.05-8.04-1-14.1.09-16.96,9.51-1.94,6.35-9.57,8.43-15.36,5.94-5.78-2.5-9.07-8.95-6.6-15.17,7.77-19.64,15.98-39.11,24.04-58.64,3.34-8.08,6.84-16.08,10.14-24.17,2.24-5.49,6.12-8.58,12.11-8.5,5.76.08,9.39,3.29,11.54,8.46,11.18,26.82,22.46,53.59,33.52,80.47,3.18,7.69.59,14.72-5.88,17.53Z"/><path class="cls-8" d="M539.55,302.55c-2.08-.78-4.33-1.26-6.19-2.39-4.38-2.65-6.66-6.74-5.88-11.85,1.04-6.77,5.7-9.95,12.14-10.96,6.11.91,10.74,3.76,11.97,10.2.99,5.23-1.02,9.35-5.37,12.6-2.09,1.57-4.86.5-6.66,2.4Z"/><path class="cls-5" d="M493.95,548.75c-13.56,10.14-28.21,18.99-43.79,26.32-8.45-7.96-19.79-12.44-32.78-12.48-38.21-.12-76.41-.1-114.62-.01-18.99.04-34.39,9.26-42.56,23.95-13.78-4.54-27.08-10.23-39.78-16.97-.03-13.92.08-27.84.3-41.76.24-15.66,12.54-26.38,29.41-26.42,35.96-.1,71.91-.04,107.87-.04s69.47,0,104.2.01c20.92,0,31.7,10.77,31.72,31.68,0,5.24.01,10.47.03,15.71Z"/><path class="cls-6" d="M418.68,587.2c.17,0,.33,0,.5.01-25.32,8.07-52.56,12.34-81.21,12.11-17.87-.14-35.38-2.15-52.32-5.84,3.87-3.92,9.16-6.26,15.28-6.29,39.25-.18,78.51-.21,117.75.01Z"/><path class="cls-6" d="M175.21,174.08c0-25.85-.26-49.95.08-74.04.26-18.13,13.98-31.38,32.09-31.77,5.72-.12,11.44-.05,17.15-.02,12.35.08,20.13,7.23,20.32,19.5.28,18.58.02,37.16.13,55.75.02,3.02-1,4.1-3.99,4.8-15.82,3.74-31.5,7.97-47,12.89-7.16,2.27-13.57,5.18-18.78,12.88Z"/><path class="cls-6" d="M269.58,103.83c0-10.82-.07-21.65.02-32.47.09-11.24,7.48-18.82,18.72-19.01,10.62-.18,21.24-.19,31.85,0,10.75.2,18.28,7.22,18.46,17.93.34,20.62.11,41.24.2,61.87.01,2.47-.58,3.59-3.34,3.75-20.56,1.16-41.08,2.94-61.44,6.12-4.27.67-4.59-1.07-4.54-4.5.16-11.23.06-22.46.06-33.69Z"/><path class="cls-6" d="M432.93,109.3c0,8.17,0,16.34,0,24.5,0,7.64-.03,7.8-7.8,6.58-16.96-2.66-34.06-3.55-51.16-4.48-10.22-.56-10.22-.42-10.22-10.38,0-13.68-.08-27.36.03-41.04.11-13.13,7.01-19.93,20.04-19.98,10.21-.04,20.42-.09,30.63.02,10.99.12,18.28,7.39,18.44,18.44.13,8.78.03,17.56.03,26.34Z"/><path class="cls-6" d="M527.24,164.08c-22.22-7.11-44.08-13.3-66.36-17.91-2.86-.59-3.3-2.2-3.27-4.77.13-10.21-.15-20.43.11-30.64.32-12.82,7.81-19.74,20.68-19.59,28.52.34,48.7,20.66,48.84,49.22.04,7.71,0,15.43,0,23.68Z"/><path class="cls-8" d="M327.65,438.02c-.34,6.59-6.19,11.98-12.58,11.59-6.4-.38-11.93-6.38-11.7-12.68.25-6.79,6.24-12.16,13.09-11.74,6.62.41,11.55,6.05,11.2,12.83Z"/><path class="cls-9" d="M448.67,332.85c3-7.27,5.84-14.14,9.13-22.09,3.27,7.87,6.13,14.76,9.18,22.09h-18.3Z"/><polygon class="cls-10" points="156.03 423.38 191.93 452.21 350.26 456.6 346.77 416.81 165.55 409.26 156.03 423.38"/><rect class="cls-10" x="186.46" y="251.27" width="321.21" height="144.05"/></g></svg>