<?xml version="1.0" encoding="UTF-8"?><svg id="Calque_2" xmlns="http://www.w3.org/2000/svg" xmlns:xlink="http://www.w3.org/1999/xlink" viewBox="0 0 402.24 402.24"><defs><style>.cls-1{fill:#6faddf;}.cls-1,.cls-2,.cls-3,.cls-4,.cls-5,.cls-6,.cls-7,.cls-8{stroke-width:0px;}.cls-2{fill:#828a9e;}.cls-3{fill:#62667c;}.cls-4{fill:#ededed;}.cls-5{fill:#ea5262;}.cls-6{fill:#eff0ee;}.cls-7{fill:#77bb5d;opacity:0;}.cls-8{fill:url(#Dégradé_sans_nom_10);opacity:.65;}</style><linearGradient id="Dégradé_sans_nom_10" x1="134.51" y1="222.47" x2="210.48" y2="183.16" gradientUnits="userSpaceOnUse"><stop offset="0" stop-color="#fff"/><stop offset=".51" stop-color="#fff" stop-opacity=".6"/><stop offset=".9" stop-color="#fff" stop-opacity="0"/></linearGradient></defs><g id="Calque_1-2"><rect class="cls-7" width="402.24" height="402.24"/><rect class="cls-4" x="9.92" y="152.93" width="22.11" height="182.55" rx="11.06" ry="11.06"/><rect class="cls-4" x="367.65" y="27.07" width="22.11" height="182.55" rx="11.06" ry="11.06"/><circle class="cls-4" cx="85.71" cy="256.89" r="46.54"/><circle class="cls-3" cx="85.71" cy="256.89" r="27.78"/><circle class="cls-2" cx="85.71" cy="256.89" r="20.74"/><circle class="cls-1" cx="85.71" cy="256.89" r="14.67"/><circle class="cls-5" cx="67.23" cy="224.66" r="3.81"/><ellipse class="cls-6" cx="79.38" cy="251.67" rx="6.41" ry="4.53" transform="translate(-164.82 151.65) rotate(-50.22)"/><path class="cls-8" d="M115.46,216.93l13.69-5.85c14.17-6.06,29.02-10.35,44.24-12.78l32.91-5.26-26.31,13.39c-13.95,7.1-27.07,15.72-39.12,25.71l-7.78,6.45h0c-3.11-8.99-9.27-16.61-17.41-21.53l-.22-.13Z"/></g></svg>