<?xml version="1.0" encoding="UTF-8"?><svg id="Calque_2" xmlns="http://www.w3.org/2000/svg" viewBox="0 0 520.44 520.44"><defs><style>.cls-1{fill:#284d5c;opacity:0;}.cls-1,.cls-2,.cls-3,.cls-4,.cls-5,.cls-6{stroke-width:0px;}.cls-2{fill:#211116;}.cls-7{stroke-width:3px;}.cls-7,.cls-8{fill:none;stroke:#1d1d1b;stroke-miterlimit:10;}.cls-3{fill:#f29092;}.cls-4{fill:#4a4a4a;}.cls-8{stroke-width:2px;}.cls-5{fill:#1d1d1b;}.cls-6{fill:#e73746;}</style></defs><g id="Calque_1-2"><rect class="cls-1" width="520.44" height="520.44"/><path class="cls-2" d="M14.75,277.73c0-27.2-.01-54.39,0-81.59.01-16.7,9.57-27.59,26.27-29.79,1.99-.26,2.49-.82,2.8-2.81,1.88-12.11,7.47-16.81,19.75-16.84,17.95-.03,35.91-.05,53.86,0,11.84.04,17.58,5.16,18.85,16.92.23,2.18.98,2.77,2.9,2.56.35-.04.71,0,1.07,0,4.97-.06,10.86,1.5,14.65-.65,3.5-1.99,4.25-8.31,7.07-12.09,26.33-35.32,60.08-59.86,103.38-70.21,19.22-4.6,38.67-7.47,58.52-6.49,11.42.56,22.59,2.53,32.87,7.73,19.04,9.63,26.88,25.82,26.49,46.58-.08,4.27-2.64,9.98-.15,12.4,2.61,2.53,8.37,1.79,12.73,2.55,25.86,4.53,49.99,13.16,70.42,30.24,21.41,17.91,33.38,41.13,36.95,68.56,4.27,32.86,3.6,65.59-5.76,97.63-14.93,51.09-49.58,81.56-100.44,94.68-27.31,7.04-55.05,7.88-83,5.64-43.02-3.45-84.31-14.65-125.09-28.05-12.08-3.97-21.6-11.36-28.19-22.26-1.4-2.31-2.86-3.14-5.48-3.09-7.82.15-15.64.16-23.46,0-2.73-.06-4.51.79-6.33,2.88-19.34,22.23-50.96,22.35-70.32.19-2.15-2.47-4.25-3.25-7.28-3.05-7.79.5-15.27-.57-21.64-5.56-7.41-5.81-11.43-13.36-11.42-22.92.02-27.73,0-55.46,0-83.19ZM123.37,345.49c.05-.35.14-.7.14-1.06.01-59.54,0-119.08.08-178.62,0-4.71-2.02-6.14-6.48-6.1-17.24.15-34.48.06-51.72.06-8.43,0-8.61.18-8.61,8.67,0,57.05,0,114.1.02,171.15,0,2.3.29,4.6.45,6.89-.94,6.35-.81,12.75-.12,19.08,1.89,17.29,15.13,29.79,31.64,30.18,17.63.42,31.6-10.95,34.34-28.45,1.13-7.19.49-14.54.26-21.82ZM166.04,341.16c-1,8.13-.82,16.32-.24,24.43,1.4,19.77,10.93,31.41,29.81,37.64,29.34,9.67,59.04,17.87,89.55,22.92,33.33,5.52,66.74,7.35,100.07.34,27.98-5.89,53.52-16.83,73.18-38.54,25.44-28.09,32.81-62.47,33.95-98.95.72-13.52-.19-26.98-1.81-40.39-3.31-27.47-15.54-49.94-38.13-66.23-25.69-18.52-55.35-24.86-86.21-26.67-31.6-1.85-62.72,1.69-93.39,9.45-5.64,1.43-8.76-.09-9.85-4.21-1.08-4.09,1.26-7.06,6.66-8.4,27.5-6.83,55.4-10.26,83.75-10.61,5.16-.06,11.82,4.29,15.37-1.43,2.91-4.68,1.4-11.1,1.2-16.78-.04-1.23-.26-2.47-.51-3.68-3.55-17.19-15.84-24.8-31.55-28.36-15.48-3.51-31.01-2.21-46.6-.23-44.16,5.6-80.73,25.06-110.27,58.43-10.86,12.27-15.84,25.6-15.65,42.06.56,47.08.19,94.17.22,141.26,0,2.65.29,5.31.44,7.96ZM152.35,274.47h.05c0-28.76,0-57.53,0-86.29q0-9.08-8.95-9.08-7.08,0-7.08,7.21c0,59.48-.05,118.96.19,178.44.02,3.88-3.99,8.87-.09,11.19,3.15,1.88,8.31.19,12.55.5,4.2.32,5.06-1.9,4.26-5.15-1.04-4.21-.91-8.44-.91-12.68,0-28.05,0-56.11,0-84.16ZM43.55,273.47h.05c0-29.84.01-59.69-.01-89.53,0-5.22-.79-5.61-5.52-3.77-7.77,3-10.47,9.12-10.48,16.8-.05,42.99-.03,85.98-.02,128.97,0,11.55-.05,23.09.06,34.64.08,8.54,6.41,15.46,14.21,15.8,2.36.1,4.22.1,3.3-3.44-1.57-6.02-1.65-12.22-1.63-18.45.1-27,.04-54,.04-81Z"/><path class="cls-4" d="M152.35,274.47c0,28.05,0,56.11,0,84.16,0,4.24-.12,8.47.91,12.68.8,3.25-.06,5.46-4.26,5.15-4.24-.32-9.4,1.37-12.55-.5-3.9-2.32.1-7.32.09-11.19-.23-59.48-.18-118.96-.19-178.44q0-7.21,7.08-7.21,8.95,0,8.95,9.08c0,28.76,0,57.53,0,86.29h-.05Z"/><path class="cls-4" d="M43.55,273.47c0,27,.06,54-.04,81-.02,6.22.06,12.43,1.63,18.45.92,3.54-.94,3.54-3.3,3.44-7.8-.34-14.13-7.26-14.21-15.8-.11-11.55-.06-23.09-.06-34.64,0-42.99-.03-85.98.02-128.97,0-7.68,2.71-13.79,10.48-16.8,4.74-1.83,5.52-1.45,5.52,3.77.02,29.84.01,59.69.01,89.53h-.05Z"/><path class="cls-6" d="M166.04,341.16c-.15-2.65-.44-5.31-.44-7.96-.03-47.09.34-94.18-.22-141.26-.2-16.46,4.78-29.79,15.65-42.06,29.54-33.37,66.11-52.83,110.27-58.43,15.59-1.98,31.12-3.28,46.6.23,15.71,3.56,27.99,11.17,31.55,28.36.25,1.21.47,2.45.51,3.68.2,5.68,1.71,12.1-1.2,16.78-3.56,5.72-10.22,1.36-15.37,1.43-28.35.35-56.25,3.77-83.75,10.61-5.4,1.34-7.73,4.31-6.66,8.4,1.08,4.12,4.21,5.63,9.85,4.21,30.67-7.76,61.79-11.31,93.39-9.45,30.86,1.81,60.52,8.15,86.21,26.67,22.59,16.28,34.82,38.76,38.13,66.23,1.62,13.41,2.53,26.87,1.81,40.39-.54,1.29-1.21,2.55-1.6,3.88-8.57,29.25-24.67,53.02-50.53,69.75-26.79,17.33-56.82,23.75-88.05,25.37-12.16.63-24.4.54-36.63-.73-10.52-1.09-21.05-2.15-31.48-3.83-17.07-2.74-33.91-6.66-50.6-11.21-14.5-3.96-28.89-8.28-43.2-12.85-10.19-3.25-17.45-10.42-24.24-18.21ZM416.77,177.97c-3.54.34-5.66,2.06-6.33,5.48-1.07,5.51,2.87,6.84,6.79,8.43,18.72,7.6,33.53,19.58,42.25,38.26.74,1.58,1.7,3.1,2.79,4.47,1.44,1.81,3.35,2.62,5.66,1.59,2.17-.96,4.16-2.11,4.39-4.83.2-2.34-.17-4.52-1.17-6.7-7.75-16.87-20.21-29.33-36.09-38.52-5.81-3.36-11.91-6.25-18.3-8.19ZM384.11,183.37c4.87.02,7.2-2.74,7.85-6.36.61-3.42-1.9-5.65-5.14-6.29-4.81-.94-9.68-1.83-14.56-2.07-3.36-.16-6.19,1.55-6.58,5.48-.38,3.74.58,6.28,4.91,7.33,4.67,1.13,9.55.13,13.52,1.91Z"/><path class="cls-6" d="M166.04,341.16c6.79,7.79,14.04,14.95,24.24,18.21,14.31,4.57,28.7,8.89,43.2,12.85,16.69,4.56,33.53,8.47,50.6,11.21,10.42,1.67,20.96,2.73,31.48,3.83,12.24,1.27,24.48,1.36,36.63.73,31.23-1.62,61.25-8.04,88.05-25.37,25.86-16.73,41.96-40.5,50.53-69.75.39-1.33,1.06-2.59,1.6-3.88-1.14,36.48-8.51,70.86-33.95,98.95-19.67,21.71-45.2,32.65-73.18,38.54-33.34,7.02-66.74,5.18-100.07-.34-30.51-5.05-60.22-13.25-89.55-22.92-18.87-6.22-28.41-17.87-29.81-37.64-.57-8.11-.75-16.3.24-24.43Z"/><path class="cls-6" d="M57.25,346.49c-.16-2.3-.45-4.6-.45-6.89-.03-57.05-.02-114.1-.02-171.15,0-8.49.19-8.66,8.61-8.67,17.24,0,34.48.09,51.72-.06,4.46-.04,6.48,1.39,6.48,6.1-.09,59.54-.07,119.08-.08,178.62,0,.35-.09.7-.14,1.06-1.05.95-2.23,1.79-3.13,2.87-12.78,15.4-34.92,18.65-51.74,7.8-4.25-2.74-6.96-7.09-11.26-9.67Z"/><path class="cls-6" d="M57.25,346.49c4.29,2.58,7.01,6.93,11.26,9.67,16.82,10.85,38.96,7.6,51.74-7.8.89-1.08,2.08-1.92,3.13-2.87.23,7.28.87,14.62-.26,21.82-2.75,17.5-16.71,28.86-34.34,28.45-16.51-.39-29.74-12.89-31.64-30.18-.69-6.33-.82-12.73.12-19.08Z"/><path class="cls-3" d="M416.77,177.97c6.39,1.94,12.49,4.83,18.3,8.19,15.88,9.19,28.34,21.65,36.09,38.52,1,2.19,1.37,4.37,1.17,6.7-.24,2.72-2.23,3.87-4.39,4.83-2.31,1.02-4.22.22-5.66-1.59-1.09-1.37-2.05-2.89-2.79-4.47-8.73-18.68-23.53-30.65-42.25-38.26-3.91-1.59-7.86-2.92-6.79-8.43.67-3.43,2.79-5.14,6.33-5.48Z"/><path class="cls-3" d="M384.11,183.37c-3.97-1.78-8.85-.78-13.52-1.91-4.34-1.05-5.29-3.59-4.91-7.33.39-3.93,3.23-5.64,6.58-5.48,4.88.24,9.75,1.13,14.56,2.07,3.24.63,5.75,2.87,5.14,6.29-.65,3.62-2.98,6.38-7.85,6.36Z"/><ellipse class="cls-5" cx="236.67" cy="262.31" rx="22.19" ry="22.49"/><ellipse class="cls-5" cx="236.67" cy="340.62" rx="22.19" ry="22.49"/><ellipse class="cls-5" cx="412.6" cy="262.31" rx="22.19" ry="22.49"/><ellipse class="cls-5" cx="412.6" cy="340.62" rx="22.19" ry="22.49"/><ellipse class="cls-5" cx="324.64" cy="217.34" rx="22.19" ry="22.49"/><ellipse class="cls-5" cx="324.64" cy="295.65" rx="22.19" ry="22.49"/><ellipse class="cls-5" cx="324.64" cy="373.95" rx="22.19" ry="22.49"/><polyline class="cls-7" points="236.67 262.31 324.64 295.65 412.6 340.62 324.64 373.95 236.67 340.62 324.64 295.65 412.6 263.38 324.64 217.34 236.67 263.38"/><line class="cls-7" x1="236.67" y1="262.31" x2="324.64" y2="376.11"/><line class="cls-7" x1="236.67" y1="340.62" x2="324.64" y2="217.34"/><line class="cls-8" x1="412.6" y1="263.38" x2="324.64" y2="217.34"/><line class="cls-8" x1="412.6" y1="340.62" x2="324.64" y2="373.95"/><line class="cls-7" x1="410.56" y1="262.31" x2="324.64" y2="373.95"/><line class="cls-7" x1="412.6" y1="340.62" x2="324.64" y2="217.34"/></g></svg>